# xmcd
#
# Track frame offsets:
# 150
# 18201
# 38060
# 48526
# 58684
# 69283
# 85212
# 96614
# 109661
# 126441
# 143350
# 155871
# 167566
#
# Disc length: 2816 seconds
#
#
# Revision: 0
# Processed by: cddbd v1.5.1PL2 Copyright (c) Steve Scherf et al.
# Submitted via: FreeRIP 2.944 
#
DISCID=ad0afe0d
DTITLE=Hot Boogie Chillun - Hot Boogie Chillun
DYEAR=1900
DGENRE=Boogie/Blues
TTITLE0=She's gone
TTITLE1=Leave me alone
TTITLE2=You better
TTITLE3=I'm coming home
TTITLE4=Dirty old man (garage version)
TTITLE5=F*** sweet
TTITLE6=Dirty robber
TTITLE7=Shot of love
TTITLE8=Talkin' 'bout you
TTITLE9=Yes or no
TTITLE10=Have love will travel
TTITLE11=He's waiting
TTITLE12=Dinosaur
EXTD=
EXTT0=
EXTT1=
EXTT2=
EXTT3=
EXTT4=
EXTT5=
EXTT6=
EXTT7=
EXTT8=
EXTT9=
EXTT10=
EXTT11=
EXTT12=
PLAYORDER=
